<svg xmlns="http://www.w3.org/2000/svg" xmlns:xlink="http://www.w3.org/1999/xlink" version="1.1" id="Layer_1" x="0" y="0" width="595.28" height="841.89" viewBox="0" enable-background="new 0 0 595.28 841.89" xml:space="preserve">
  <path id="Face" fill="#FDC789" d="M64 231.89c0-6.33 0-12.67 0-19 2.2-9.52 3.64-19.29 6.75-28.5 11.71-34.71 34.8-60.63 64.9-80.47 36.35-23.96 76.25-35.56 119.86-29.65 45 6.1 82.99 26.49 113.5 60.23 17.75 19.63 30.49 42.21 34.05 68.71 1.78 13.23 1.33 26.86 0.82 40.27 -0.99 25.79-2.71 51.56-4.19 77.33 -1.52 26.44-3.15 52.87-4.67 79.3 -1.48 25.77-2.84 51.55-4.3 77.32 -1.55 27.44-3.08 54.87-4.79 82.3 -0.87 13.95-1.05 28.05-3.39 41.77 -7.62 44.65-25.91 84.68-54.8 119.64 -16.44 19.9-35.77 36.31-60.34 45.38 -7.85 2.9-16.24 4.3-24.39 6.38 -5.33 0-10.67 0-16 0 -0.61-0.25-1.2-0.67-1.83-0.74 -25.54-2.81-46.7-14.84-65.18-31.84 -35.07-32.26-56.45-72.67-69-118.16 -5.17-18.73-6.64-37.9-7.42-57.24 -1.08-26.78-3.01-53.53-4.55-80.29 -1.47-25.6-2.87-51.21-4.35-76.81 -1.51-26.1-3.12-52.19-4.62-78.29 -1.5-26.1-2.86-52.21-4.38-78.31C65.3 244.76 64.57 238.33 64 231.89z"/>
  <path id="Hair" fill-rule="evenodd" clip-rule="evenodd" d="M302.52 225.33c11.03-13.69 15.65-29.22 14.8-47.9 -12.4 25.38-18.57 34.02-26.92 38.65 4.28-8.4 8.85-17.36 13.42-26.32 -0.53-0.31-1.07-0.62-1.6-0.93 -5.4 9.77-12.1 18.39-21.68 24.57 8.49-10.89 13.51-23 14.66-36.75 1.16-13.81-1.62-26.74-7.81-39.2 0.37 13.02-1.03 25.68-6.18 37.71 -5.12 11.95-12.69 21.89-23.97 28.87 1.63-2.2 3.38-4.33 4.86-6.62 10.85-16.84 12.58-35.04 8.1-54.2 -3.11-13.32-10.27-24.46-18.67-34.93 -0.5-0.62-1.16-1.29-1.88-1.53 -3.66-1.23-13.63 3.25-14.74 6.86 -5.07 16.5-11.94 32.64-12.42 50.2 -1.09 40.5 12.01 74.19 47.54 96.79 0.82 0.52 1.62 1.05 2.16 2.04 -16.38-4.04-30.39-12.38-42.65-23.84 -12.33-11.52-21.23-25.42-27.96-41.67 -1.92 14.67 8.32 36.8 27.12 59.79 -12.15-3.5-32.87-26.47-41.76-46.25 -8.93-19.88-11.75-40.71-9.29-63.64 -12.26 13.49-20.48 27.71-25.24 43.88 -4.77 16.19-5.47 32.58-1.63 49.18 -7.83-13.64-11.28-28.34-11.84-43.77 -0.56-15.27 2.32-30.01 7.27-44.41 -17.74 24.7-25.16 51.69-17.91 82.33 -7.52-8.14-13.63-34.53-12.31-54.02 1.09-16.04 4.46-26.98 16.92-53.32 -9.6 1.01-31.59 15.89-43.25 29.33 -11.81 13.63-19.6 29.2-22.08 47.28 -0.52-0.06-1.05-0.13-1.57-0.19 0.41-6.91 0.28-13.9 1.33-20.71 8.06-52.26 54.89-81.11 104.82-98.41 3.16-1.09 5.36-1.67 8.43-2.89 26.16-10.39 52.57-14.44 80.01-6.24 0.92 0.27 2.49 0.7 2.79 0.31 3.6-4.69 8.16-1.93 11.97-1.19 28.39 5.49 52.7 19.09 74.11 38.19 21.66 19.32 37.75 42.48 47.83 69.74 7.1 19.19 10.06 38.95 7.9 59.39 -0.12 1.09-0.4 2.17-1.29 3.43 -2.37-25.38-12-47.86-26.59-68.27 -14.49-20.28-32.65-36.55-55.61-49.6 12.07 23.68 14.04 46.66 4.1 70.04C320.86 208.68 313.27 218.29 302.52 225.33z"/>
  <g id="Glasses_1_">
    <path id="Glass__x28_L_x29_" fill-rule="evenodd" clip-rule="evenodd" fill="#FFFFFF" d="M192.03 401.78c-0.04-34.67-28.33-62.88-63.04-62.87 -34.7 0.01-62.96 28.23-62.99 62.91 -0.03 34.94 28.3 63.2 63.29 63.12C163.93 464.87 192.07 436.54 192.03 401.78z"/>
    <path id="Glass__x28_R_x29_" fill-rule="evenodd" clip-rule="evenodd" fill="#FFFFFF" d="M402.32 401.78c-0.04-34.67-28.33-62.88-63.04-62.87 -34.7 0.01-62.96 28.23-62.99 62.91 -0.03 34.94 28.3 63.2 63.29 63.12C374.22 464.87 402.36 436.54 402.32 401.78z"/>
    <path id="Glasses" fill-rule="evenodd" clip-rule="evenodd" d="M55 393.89c2.72-8.64 4.42-17.78 8.34-25.84 20.88-42.93 77.27-54.84 114.2-24.5 10.63 8.73 15.18 15.14 23.95 33.92 21.84-9.35 43.73-9.07 64.53 0.8 5.4-8.63 9.61-17.88 16.05-25.17 20.52-23.26 46.37-31.09 76.63-23.56 51.69 12.85 73.63 78.67 37.16 121.06 -20.83 24.22-47.51 31.85-77.93 23.17 -30.01-8.56-47.42-29.49-52.97-60.06 -1.12-6.15-0.57-12.59-1.03-18.88 -0.11-1.59-0.65-3.79-1.77-4.57 -14.21-9.84-43.33-9.69-57.62 0.09 2.58 22.19-2.06 42.61-16.8 59.64 -20.45 23.62-46.5 32.24-76.84 24.33 -31.4-8.18-48.8-29.82-54.9-61.17 -0.21-1.1-0.65-2.16-0.98-3.24C55 404.56 55 399.22 55 393.89zM402.02 402.12c0.07-34.78-28.04-63.15-62.66-63.25 -34.82-0.1-63.23 27.94-63.37 62.54 -0.14 35.05 28.02 63.46 62.91 63.5C373.64 464.94 401.95 436.77 402.02 402.12zM193.02 401.74c-0.04-34.67-28.33-62.88-63.04-62.87 -34.7 0.01-62.96 28.23-62.99 62.91 -0.03 34.94 28.3 63.2 63.29 63.12C164.92 464.83 193.06 436.5 193.02 401.74z"/>
  </g>
  <path id="Pipe_1_" fill-rule="evenodd" clip-rule="evenodd" d="M542 583.89c-0.26 2.62-0.69 5.24-0.74 7.86 -0.36 18.48-0.48 36.98-1.13 55.45 -0.1 2.94-1.81 6.45-3.91 8.56 -5.05 5.08-11.44 8.08-18.77 8.17 -15.16 0.18-30.31 0.21-45.47 0.22 -32.48 0.03-64.97-0.05-97.45 0.03 -23.81 0.06-47.63 0.85-71.43 0.31 -15.06-0.34-30.08-2.57-45.13-3.86 -2.77-0.24-5.57-0.04-9.27-0.04 0-2.47 0-5.95 0-8.71 3.63 0 6.55 0.58 9.14-0.09 19.45-5.06 39.16-6.46 59.25-6.24 50.97 0.55 101.95 0.29 152.92 0.35 1.99 0 3.98 0 6.58 0 0-23 0-45.72 0-69.02 22.22 0 43.82 0 65.43 0C542 579.22 542 581.56 542 583.89z"/>
</svg>
