<svg xmlns="http://www.w3.org/2000/svg" width="595.279" height="841.89"><path fill="#FDC789" d="M64 231.89v-19c2.204-9.517 3.641-19.292 6.749-28.503 11.708-34.707 34.8-60.631 64.896-80.466 36.354-23.958 76.249-35.561 119.863-29.653 45.003 6.096 82.992 26.489 113.495 60.228 17.751 19.634 30.488 42.211 34.046 68.707 1.774 13.229 1.33 26.862.814 40.271-.99 25.792-2.709 51.556-4.189 77.328-1.52 26.438-3.152 52.866-4.667 79.303-1.477 25.771-2.839 51.551-4.3 77.324-1.555 27.436-3.077 54.871-4.786 82.297-.869 13.945-1.046 28.051-3.388 41.766-7.615 44.646-25.91 84.678-54.802 119.641-16.442 19.898-35.771 36.314-60.345 45.377-7.846 2.896-16.242 4.295-24.387 6.381h-16c-.61-.254-1.202-.67-1.832-.738-25.542-2.812-46.704-14.84-65.185-31.842-35.066-32.264-56.449-72.67-68.998-118.154-5.166-18.73-6.639-37.896-7.42-57.242-1.082-26.783-3.011-53.529-4.546-80.295-1.468-25.604-2.869-51.207-4.351-76.809-1.511-26.099-3.123-52.191-4.619-78.291-1.496-26.101-2.862-52.208-4.378-78.308-.372-6.452-1.103-12.882-1.67-19.322z"/><path d="M302.521 225.326c11.029-13.693 15.651-29.217 14.797-47.904-12.396 25.376-18.571 34.023-26.919 38.646l13.423-26.325-1.604-.934c-5.404 9.773-12.098 18.387-21.685 24.568 8.484-10.886 13.505-22.998 14.663-36.754 1.163-13.807-1.621-26.738-7.808-39.198.372 13.018-1.027 25.676-6.185 37.71-5.121 11.949-12.693 21.885-23.975 28.872 1.625-2.203 3.377-4.327 4.857-6.625 10.852-16.836 12.584-35.042 8.104-54.2-3.114-13.324-10.269-24.458-18.672-34.934-.499-.622-1.158-1.287-1.877-1.529-3.662-1.23-13.635 3.25-14.745 6.86-5.072 16.503-11.944 32.64-12.417 50.204-1.087 40.498 12.015 74.194 47.538 96.791.815.519 1.621 1.054 2.164 2.04-16.383-4.044-30.391-12.382-42.648-23.843-12.326-11.522-21.233-25.422-27.957-41.667-1.924 14.673 8.316 36.799 27.115 59.788-12.146-3.497-32.869-26.47-41.762-46.254-8.935-19.877-11.748-40.71-9.288-63.642-12.26 13.491-20.481 27.708-25.245 43.883-4.767 16.189-5.471 32.576-1.628 49.18-7.831-13.636-11.279-28.339-11.843-43.772-.559-15.269 2.323-30.009 7.271-44.408-17.735 24.7-25.159 51.694-17.912 82.33-7.52-8.138-13.632-34.53-12.312-54.018 1.087-16.036 4.463-26.978 16.917-53.321-9.598 1.01-31.595 15.886-43.248 29.333-11.812 13.63-19.6 29.199-22.081 47.281l-1.57-.193c.413-6.908.276-13.902 1.326-20.713 8.059-52.263 54.888-81.112 104.815-98.411 3.16-1.095 5.364-1.666 8.434-2.886 26.158-10.393 52.567-14.437 80.012-6.237.915.273 2.489.7 2.788.311 3.599-4.689 8.163-1.932 11.972-1.195 28.385 5.489 52.694 19.085 74.108 38.192 21.655 19.323 37.749 42.481 47.832 69.739 7.1 19.191 10.059 38.954 7.898 59.385-.116 1.092-.403 2.166-1.287 3.43-2.369-25.385-12.004-47.858-26.587-68.269-14.491-20.282-32.654-36.551-55.61-49.597 12.074 23.68 14.039 46.657 4.095 70.043-4.924 11.596-12.512 21.211-23.264 28.243z"/><g><path fill="#fff" d="M192.031 401.783c-.045-34.67-28.325-62.877-63.04-62.87-34.704.007-62.964 28.23-62.994 62.914-.031 34.94 28.302 63.198 63.289 63.12 34.641-.076 62.788-28.41 62.745-63.164z"/><path fill="#fff" d="M402.32 401.783c-.045-34.67-28.326-62.877-63.041-62.87-34.705.007-62.964 28.23-62.994 62.914-.031 34.94 28.301 63.198 63.289 63.12 34.643-.076 62.789-28.41 62.746-63.164z"/><path d="M55 393.89c2.724-8.641 4.423-17.78 8.342-25.84 20.875-42.933 77.27-54.841 114.195-24.504 10.631 8.734 15.181 15.14 23.949 33.916 21.843-9.346 43.734-9.067 64.526.796 5.4-8.627 9.614-17.878 16.049-25.171 20.524-23.26 46.371-31.086 76.625-23.565 51.689 12.85 73.627 78.666 37.158 121.063-20.832 24.217-47.51 31.854-77.931 23.17-30.005-8.562-47.415-29.492-52.973-60.06-1.116-6.151-.573-12.594-1.026-18.884-.113-1.59-.646-3.789-1.774-4.57-14.212-9.835-43.331-9.687-57.62.088 2.582 22.188-2.062 42.611-16.804 59.64-20.448 23.623-46.503 32.24-76.839 24.332-31.397-8.184-48.798-29.818-54.897-61.168-.215-1.104-.648-2.162-.98-3.242v-16.001zm347.018 8.229c.064-34.782-28.038-63.147-62.664-63.246-34.822-.1-63.232 27.937-63.371 62.538-.139 35.049 28.016 63.463 62.913 63.497 34.74.031 63.054-28.135 63.122-62.789zm-209.001-.376c-.043-34.67-28.326-62.877-63.04-62.87-34.704.007-62.963 28.23-62.994 62.914-.03 34.941 28.303 63.197 63.289 63.121 34.643-.078 62.789-28.412 62.745-63.165z"/></g><path d="M542 583.89c-.258 2.621-.69 5.238-.742 7.863-.364 18.484-.483 36.98-1.131 55.453-.104 2.938-1.812 6.447-3.912 8.564-5.046 5.084-11.441 8.084-18.769 8.172-15.155.184-30.314.207-45.474.219-32.484.029-64.97-.055-97.454.031-23.812.062-47.634.846-71.428.305-15.064-.344-30.083-2.57-45.13-3.859-2.769-.236-5.573-.035-9.271-.035v-8.709c3.628 0 6.545.582 9.136-.092 19.454-5.062 39.157-6.463 59.25-6.244 50.97.553 101.946.287 152.92.352 1.988.002 3.978 0 6.579 0v-69.02h65.426v7z"/></svg>