<?xml version="1.0" encoding="utf-8"?>
<!-- Generator: Adobe Illustrator 16.0.0, SVG Export Plug-In . SVG Version: 6.00 Build 0)  -->
<!DOCTYPE svg PUBLIC "-//W3C//DTD SVG 1.1//EN" "http://www.w3.org/Graphics/SVG/1.1/DTD/svg11.dtd">
<svg version="1.1" id="Layer_1" xmlns="http://www.w3.org/2000/svg" xmlns:xlink="http://www.w3.org/1999/xlink" x="0px" y="0px"
	 width="595.279px" height="841.89px" viewBox="0 0 595.279 841.89" enable-background="new 0 0 595.279 841.89"
	 xml:space="preserve">
<path id="Face" fill="#FDC789" d="M64,231.89c0-6.333,0-12.667,0-19c2.204-9.517,3.641-19.292,6.749-28.503
	c11.708-34.707,34.8-60.631,64.896-80.466c36.354-23.958,76.249-35.561,119.863-29.653c45.003,6.096,82.992,26.489,113.495,60.228
	c17.751,19.634,30.488,42.211,34.046,68.707c1.774,13.229,1.33,26.862,0.814,40.271c-0.99,25.792-2.709,51.556-4.189,77.328
	c-1.52,26.438-3.152,52.866-4.667,79.303c-1.477,25.771-2.839,51.551-4.3,77.324c-1.555,27.436-3.077,54.871-4.786,82.297
	c-0.869,13.945-1.046,28.051-3.388,41.766c-7.615,44.646-25.91,84.678-54.802,119.641c-16.442,19.898-35.771,36.314-60.345,45.377
	c-7.846,2.896-16.242,4.295-24.387,6.381c-5.334,0-10.667,0-16,0c-0.61-0.254-1.202-0.67-1.832-0.738
	c-25.542-2.812-46.704-14.84-65.185-31.842c-35.066-32.264-56.449-72.67-68.998-118.154c-5.166-18.73-6.639-37.896-7.42-57.242
	c-1.082-26.783-3.011-53.529-4.546-80.295c-1.468-25.604-2.869-51.207-4.351-76.809c-1.511-26.099-3.123-52.191-4.619-78.291
	c-1.496-26.101-2.862-52.208-4.378-78.308C65.298,244.76,64.567,238.33,64,231.89z"/>
<path id="Hair" d="M302.521,225.326c11.029-13.693,15.651-29.217,14.797-47.904c-12.396,25.376-18.571,34.023-26.919,38.646
	c4.284-8.402,8.854-17.364,13.423-26.325c-0.534-0.311-1.067-0.623-1.604-0.934c-5.404,9.773-12.098,18.387-21.685,24.568
	c8.484-10.886,13.505-22.998,14.663-36.754c1.163-13.807-1.621-26.738-7.808-39.198c0.372,13.018-1.027,25.676-6.185,37.71
	c-5.121,11.949-12.693,21.885-23.975,28.872c1.625-2.203,3.377-4.327,4.857-6.625c10.852-16.836,12.584-35.042,8.104-54.2
	c-3.114-13.324-10.269-24.458-18.672-34.934c-0.499-0.622-1.158-1.287-1.877-1.529c-3.662-1.23-13.635,3.25-14.745,6.86
	c-5.072,16.503-11.944,32.64-12.417,50.204c-1.087,40.498,12.015,74.194,47.538,96.791c0.815,0.519,1.621,1.054,2.164,2.04
	c-16.383-4.044-30.391-12.382-42.648-23.843c-12.326-11.522-21.233-25.422-27.957-41.667c-1.924,14.673,8.316,36.799,27.115,59.788
	c-12.146-3.497-32.869-26.47-41.762-46.254c-8.935-19.877-11.748-40.71-9.288-63.642c-12.26,13.491-20.481,27.708-25.245,43.883
	c-4.767,16.189-5.471,32.576-1.628,49.18c-7.831-13.636-11.279-28.339-11.843-43.772c-0.559-15.269,2.323-30.009,7.271-44.408
	c-17.735,24.7-25.159,51.694-17.912,82.33c-7.52-8.138-13.632-34.53-12.312-54.018c1.087-16.036,4.463-26.978,16.917-53.321
	c-9.598,1.01-31.595,15.886-43.248,29.333c-11.812,13.63-19.6,29.199-22.081,47.281c-0.522-0.064-1.046-0.129-1.57-0.193
	c0.413-6.908,0.276-13.902,1.326-20.713c8.059-52.263,54.888-81.112,104.815-98.411c3.16-1.095,5.364-1.666,8.434-2.886
	c26.158-10.393,52.567-14.437,80.012-6.237c0.915,0.273,2.489,0.7,2.788,0.311c3.599-4.689,8.163-1.932,11.972-1.195
	c28.385,5.489,52.694,19.085,74.108,38.192c21.655,19.323,37.749,42.481,47.832,69.739c7.1,19.191,10.059,38.954,7.898,59.385
	c-0.116,1.092-0.403,2.166-1.287,3.43c-2.369-25.385-12.004-47.858-26.587-68.269c-14.491-20.282-32.654-36.551-55.61-49.597
	c12.074,23.68,14.039,46.657,4.095,70.043C320.861,208.679,313.273,218.294,302.521,225.326z"/>
<g id="Glasses_1_">
	<path id="Glass__x28_L_x29_" fill="#FFFFFF" d="M192.031,401.783c-0.045-34.67-28.325-62.877-63.04-62.87
		c-34.704,0.007-62.964,28.23-62.994,62.914c-0.031,34.94,28.302,63.198,63.289,63.12
		C163.927,464.871,192.074,436.537,192.031,401.783z"/>
	<path id="Glass__x28_R_x29_" fill="#FFFFFF" d="M402.32,401.783c-0.045-34.67-28.326-62.877-63.041-62.87
		c-34.705,0.007-62.964,28.23-62.994,62.914c-0.031,34.94,28.301,63.198,63.289,63.12
		C374.217,464.871,402.363,436.537,402.32,401.783z"/>
	<path id="Glasses" d="M55,393.89c2.724-8.641,4.423-17.78,8.342-25.84c20.875-42.933,77.27-54.841,114.195-24.504
		c10.631,8.734,15.181,15.14,23.949,33.916c21.843-9.346,43.734-9.067,64.526,0.796c5.4-8.627,9.614-17.878,16.049-25.171
		c20.524-23.26,46.371-31.086,76.625-23.565c51.689,12.85,73.627,78.666,37.158,121.063c-20.832,24.217-47.51,31.854-77.931,23.17
		c-30.005-8.562-47.415-29.492-52.973-60.06c-1.116-6.151-0.573-12.594-1.026-18.884c-0.113-1.59-0.646-3.789-1.774-4.57
		c-14.212-9.835-43.331-9.687-57.62,0.088c2.582,22.188-2.062,42.611-16.804,59.64c-20.448,23.623-46.503,32.24-76.839,24.332
		c-31.397-8.184-48.798-29.818-54.897-61.168c-0.215-1.104-0.648-2.162-0.98-3.242C55,404.557,55,399.224,55,393.89z
		 M402.018,402.119c0.064-34.782-28.038-63.147-62.664-63.246c-34.822-0.1-63.232,27.937-63.371,62.538
		c-0.139,35.049,28.016,63.463,62.913,63.497C373.636,464.939,401.95,436.773,402.018,402.119z M193.017,401.743
		c-0.043-34.67-28.326-62.877-63.04-62.87c-34.704,0.007-62.963,28.23-62.994,62.914c-0.03,34.941,28.303,63.197,63.289,63.121
		C164.915,464.83,193.061,436.496,193.017,401.743z"/>
</g>
<path id="Pipe_1_" d="M542,583.89c-0.258,2.621-0.69,5.238-0.742,7.863c-0.364,18.484-0.483,36.98-1.131,55.453
	c-0.104,2.938-1.812,6.447-3.912,8.564c-5.046,5.084-11.441,8.084-18.769,8.172c-15.155,0.184-30.314,0.207-45.474,0.219
	c-32.484,0.029-64.97-0.055-97.454,0.031c-23.812,0.062-47.634,0.846-71.428,0.305c-15.064-0.344-30.083-2.57-45.13-3.859
	c-2.769-0.236-5.573-0.035-9.271-0.035c0-2.469,0-5.953,0-8.709c3.628,0,6.545,0.582,9.136-0.092
	c19.454-5.062,39.157-6.463,59.25-6.244c50.97,0.553,101.946,0.287,152.92,0.352c1.988,0.002,3.978,0,6.579,0
	c0-23.004,0-45.727,0-69.02c22.217,0,43.82,0,65.426,0C542,579.222,542,581.556,542,583.89z"/>
</svg>
