<?xml version="1.0" encoding="utf-8"?>
<!-- Generator: Adobe Illustrator 16.0.0, SVG Export Plug-In . SVG Version: 6.00 Build 0)  -->
<!DOCTYPE svg PUBLIC "-//W3C//DTD SVG 1.1//EN" "http://www.w3.org/Graphics/SVG/1.1/DTD/svg11.dtd">
<svg version="1.1" id="Layer_1" xmlns="http://www.w3.org/2000/svg" xmlns:xlink="http://www.w3.org/1999/xlink" x="0px" y="0px"
	 width="358.915px" height="150.568px" viewBox="0 0 358.915 150.568" enable-background="new 0 0 358.915 150.568"
	 xml:space="preserve">
<g id="Glasses_1_">
	<path id="Glass__x28_L_x29_" fill-rule="evenodd" clip-rule="evenodd" fill="#FFFFFF" d="M137.031,75.137
		c-0.045-34.67-28.326-62.877-63.041-62.87c-34.704,0.007-62.963,28.23-62.994,62.914c-0.031,34.941,28.302,63.197,63.289,63.12
		C108.927,138.224,137.074,109.89,137.031,75.137z"/>
	<path id="Glass__x28_R_x29_" fill-rule="evenodd" clip-rule="evenodd" fill="#FFFFFF" d="M347.32,75.137
		c-0.045-34.67-28.326-62.877-63.041-62.87c-34.705,0.007-62.964,28.23-62.995,62.914c-0.031,34.941,28.301,63.197,63.29,63.12
		C319.217,138.224,347.363,109.89,347.32,75.137z"/>
	<path id="Glasses" fill-rule="evenodd" clip-rule="evenodd" d="M0,67.244c2.724-8.641,4.423-17.78,8.342-25.84
		c20.875-42.933,77.27-54.841,114.195-24.504c10.631,8.734,15.181,15.14,23.95,33.916c21.842-9.346,43.734-9.067,64.526,0.796
		c5.4-8.627,9.614-17.878,16.049-25.171c20.524-23.26,46.371-31.086,76.625-23.565c51.689,12.85,73.627,78.666,37.158,121.063
		c-20.832,24.217-47.51,31.853-77.93,23.171c-30.006-8.563-47.416-29.493-52.973-60.06c-1.117-6.151-0.574-12.594-1.027-18.884
		c-0.113-1.59-0.646-3.789-1.774-4.57c-14.212-9.835-43.331-9.687-57.62,0.088c2.582,22.188-2.063,42.61-16.804,59.64
		c-20.448,23.624-46.503,32.24-76.839,24.332c-31.397-8.184-48.798-29.819-54.897-61.168C0.767,85.383,0.332,84.325,0,83.245
		C0,77.911,0,72.578,0,67.244z M347.018,75.473c0.065-34.782-28.038-63.147-62.664-63.246c-34.822-0.1-63.233,27.937-63.371,62.538
		c-0.139,35.05,28.016,63.464,62.913,63.496C318.636,138.293,346.951,110.126,347.018,75.473z M138.017,75.097
		c-0.043-34.67-28.326-62.877-63.04-62.87c-34.704,0.007-62.963,28.23-62.994,62.914c-0.031,34.941,28.302,63.197,63.289,63.12
		C109.915,138.184,138.061,109.85,138.017,75.097z"/>
</g>
</svg>
