<svg xmlns="http://www.w3.org/2000/svg" xmlns:xlink="http://www.w3.org/1999/xlink" version="1.1" id="Layer_1" x="0" y="0" width="358.92" height="150.57" viewBox="0" enable-background="new 0 0 358.915 150.568" xml:space="preserve">
  <g id="Glasses_1_">
    <path id="Glass__x28_L_x29_" fill-rule="evenodd" clip-rule="evenodd" fill="#FFFFFF" d="M137.03 75.14c-0.04-34.67-28.33-62.88-63.04-62.87 -34.7 0.01-62.96 28.23-62.99 62.91 -0.03 34.94 28.3 63.2 63.29 63.12C108.93 138.22 137.07 109.89 137.03 75.14z"/>
    <path id="Glass__x28_R_x29_" fill-rule="evenodd" clip-rule="evenodd" fill="#FFFFFF" d="M347.32 75.14c-0.04-34.67-28.33-62.88-63.04-62.87 -34.7 0.01-62.96 28.23-62.99 62.91 -0.03 34.94 28.3 63.2 63.29 63.12C319.22 138.22 347.36 109.89 347.32 75.14z"/>
    <path id="Glasses" fill-rule="evenodd" clip-rule="evenodd" d="M0 67.24c2.72-8.64 4.42-17.78 8.34-25.84 20.88-42.93 77.27-54.84 114.2-24.5 10.63 8.73 15.18 15.14 23.95 33.92 21.84-9.35 43.73-9.07 64.53 0.8 5.4-8.63 9.61-17.88 16.05-25.17 20.52-23.26 46.37-31.09 76.63-23.56 51.69 12.85 73.63 78.67 37.16 121.06 -20.83 24.22-47.51 31.85-77.93 23.17 -30.01-8.56-47.42-29.49-52.97-60.06 -1.12-6.15-0.57-12.59-1.03-18.88 -0.11-1.59-0.65-3.79-1.77-4.57 -14.21-9.84-43.33-9.69-57.62 0.09 2.58 22.19-2.06 42.61-16.8 59.64 -20.45 23.62-46.5 32.24-76.84 24.33 -31.4-8.18-48.8-29.82-54.9-61.17C0.77 85.38 0.33 84.33 0 83.25 0 77.91 0 72.58 0 67.24zM347.02 75.47c0.07-34.78-28.04-63.15-62.66-63.25 -34.82-0.1-63.23 27.94-63.37 62.54 -0.14 35.05 28.02 63.46 62.91 63.5C318.64 138.29 346.95 110.13 347.02 75.47zM138.02 75.1c-0.04-34.67-28.33-62.88-63.04-62.87 -34.7 0.01-62.96 28.23-62.99 62.91 -0.03 34.94 28.3 63.2 63.29 63.12C109.92 138.18 138.06 109.85 138.02 75.1z"/>
  </g>
</svg>
